# xmcd
#
# Track frame offsets: 
#        150
#        15009
#        41789
#        67579
#        92837
#        116525
#        135883
#
# Disc length: 2209 seconds
#
# Revision: 1
# Processed by: cddbd v1.5.2PL0 Copyright (c) Steve Scherf et al.
# Submitted via: ExactAudioCopyFreeDBPlugin 1.0
#
DISCID=45089f07
DTITLE=Arnie Love and The Lovelettes - Invisible Wind The Tap Recordings
DYEAR=2009
DGENRE=Soul
TTITLE0=Breakout
TTITLE1=Stop And Make Up Your Mind
TTITLE2=Heaven Really Knows
TTITLE3=We Had Enough
TTITLE4=Me, Myself and I
TTITLE5=Invisible Wind
TTITLE6=Lover's Quarrel
EXTD=
EXTT0=
EXTT1=
EXTT2=
EXTT3=
EXTT4=
EXTT5=
EXTT6=
PLAYORDER=
